:SAMPLES-PER-SECOND 30
:FULLY-SPECIFIED
:DEGREES
448
root  -25.8316 39.2458 13.4462 176.101 -14.4634 179.844
RightUpLeg  -5.04016 19.7909 3.07279
RightLeg  23.3395 10.4886 4.64072
RightFoot  -12.7001 -0.139779 -4.55524
RightToes  -1.33073e-015 0 -3.6325e-017
Spine  5.85788 -3.17594 4.58333
Spine1  5.48028 -4.41922 6.52687
HEad  -19.6301 -54.9246 11.6692
LeftShoulder1  0.346399 2.49362 -28.1443
LeftArm  -5.03713 20.5775 -39.375
LeftForeArm  26.7686 -10.8165 -7.02087
LeftHand  -0.0298535 5.56502 0.402858
RightShoulder  -0.520519 -5.12053 25.3877
RightArm  22.5414 2.81069 48.702
RightForeArm  3.6349 36.5481 8.10746
RightHand  -0.939216 7.71905 -8.6518
LeftUpLeg  -8.07798 -10.4766 17.6479
LeftLeg  13.8908 -9.31938 -1.77778
LeftFoot  -7.08329 0.250435 -5.71191
LeftToes  -1.93726e-010 2.42366e-011 2.16268e-013
449
root  -26.7659 39.1909 13.3809 176.475 -9.60473 -179.899
RightUpLeg  -5.65856 24.4464 2.22775
RightLeg  23.8797 10.8135 4.99155
RightFoot  -13.5686 -0.161743 -3.59593
RightToes  -1.33073e-015 0 -3.6325e-017
Spine  5.97009 -3.4274 4.12574
Spine1  5.64256 -4.75866 6.5376
HEad  -18.9502 -53.0253 11.204
LeftShoulder1  0.293764 2.64237 -27.9516
LeftArm  -6.41493 19.8022 -38.8713
LeftForeArm  27.8117 -10.4824 -6.61742
LeftHand  -0.0306794 5.56862 -0.172981
RightShoulder  -0.599954 -5.33458 26.0342
RightArm  20.9598 3.17098 47.0074
RightForeArm  1.93195 33.3978 7.31595
RightHand  -0.919183 7.74158 -8.46356
LeftUpLeg  -6.45145 -2.99302 16.7285
LeftLeg  11.1137 -16.2395 -1.08314
LeftFoot  -7.07081 0.40493 -9.49555
LeftToes  -1.93726e-010 2.42366e-011 2.16268e-013
450
root  -27.682 39.1698 13.3439 177.111 -5.26449 -179.82
RightUpLeg  -6.55493 27.8458 0.704266
RightLeg  23.8875 12.0248 5.55323
RightFoot  -14.1938 -0.15997 -2.56618
RightToes  -1.33073e-015 0 -3.6325e-017
Spine  6.22563 -3.5801 2.76345
Spine1  5.39323 -5.15298 7.0842
HEad  -18.4544 -51.1816 10.9497
LeftShoulder1  0.267935 2.7134 -27.7549
LeftArm  -7.4218 19.1335 -38.7724
LeftForeArm  26.7069 -10.7188 -6.19639
LeftHand  -0.0288348 5.61952 0.680196
RightShoulder  -0.631396 -5.41466 26.3154
RightArm  19.3203 3.39982 45.0869
RightForeArm  -1.62599 29.1281 6.3998
RightHand  -0.958803 7.70816 -8.82448
LeftUpLeg  -5.64001 1.96521 15.4851
LeftLeg  10.1852 -16.3205 -0.208346
LeftFoot  -5.41133 0.606422 -11.1456
LeftToes  -1.93726e-010 2.42366e-011 2.16268e-013
451
root  -28.583 39.172 13.3602 177.47 -1.42501 -179.727
RightUpLeg  -7.25861 30.1096 -1.07786
RightLeg  23.3742 13.8722 6.27938
RightFoot  -14.6075 -0.135459 -1.28695
RightToes  -1.33073e-015 0 -3.6325e-017
Spine  7.1841 -3.70106 -0.038923
Spine1  4.92242 -5.92735 9.20253
HEad  -17.6066 -49.0872 10.043
LeftShoulder1  0.194385 2.93498 -28.0088
LeftArm  -7.09929 18.1689 -38.471
LeftForeArm  24.0072 -11.4029 -6.13376
LeftHand  -0.0278831 5.27148 1.4124
RightShoulder  -0.543131 -5.17231 25.7756
RightArm  17.0897 3.98191 43.9709
RightForeArm  -6.42202 23.323 5.43246
RightHand  -1.04755 7.46937 -9.78396
LeftUpLeg  -5.80867 0.437404 14.844
LeftLeg  12.8759 -11.0459 -0.586458
LeftFoot  -7.08827 0.451493 -10.9611
LeftToes  -1.93726e-010 2.42366e-011 2.16268e-013
452
root  -29.4406 39.1732 13.4281 177.405 2.27115 179.399
RightUpLeg  -8.05611 31.2073 -3.89658
RightLeg  23.4234 16.504 7.48712
RightFoot  -15.1287 -0.110575 -0.25804
RightToes  -1.33073e-015 0 -3.6325e-017
Spine  9.28744 -3.38983 -3.23829
Spine1  3.75064 -6.04367 10.5852
HEad  -17.49 -47.3925 10.2871
LeftShoulder1  0.167861 3.01121 -27.9035
LeftArm  -7.653 16.6899 -38.4224
LeftForeArm  23.0296 -12.2436 -5.70311
LeftHand  -0.0344078 4.36157 1.30075
RightShoulder  -0.589521 -5.31021 25.8858
RightArm  11.5849 4.06169 42.3549
RightForeArm  -6.04997 17.6976 4.99254
RightHand  -0.938987 6.37293 -9.57626
LeftUpLeg  -5.74764 1.57696 13.289
LeftLeg  15.2496 -8.23363 -1.43453
LeftFoot  -7.62067 0.34656 -9.27917
LeftToes  -1.93726e-010 2.42366e-011 2.16268e-013
453
root  -30.2699 39.208 13.4178 177.582 5.50398 178.446
RightUpLeg  -9.10889 30.8125 -6.98335
RightLeg  23.0636 18.8899 8.41145
RightFoot  -15.3666 -0.0657978 1.09793
RightToes  -1.33073e-015 0 -3.6325e-017
Spine  9.8403 -3.21531 -6.21304
Spine1  3.73034 -6.311 11.5205
HEad  -17.1606 -45.8086 10.4423
LeftShoulder1  0.257825 2.7297 -27.2422
LeftArm  -7.52115 15.4787 -38.6191
LeftForeArm  20.9307 -13.776 -5.31679
LeftHand  -0.0357925 4.44364 1.53031
RightShoulder  -0.534107 -5.15896 25.4838
RightArm  4.65241 2.95922 41.6155
RightForeArm  -5.7347 12.4076 4.40232
RightHand  -0.993398 7.01843 -9.60584
LeftUpLeg  -5.39011 4.66946 11.5038
LeftLeg  16.1045 -7.97634 -1.83298
LeftFoot  -8.57795 0.271733 -9.11407
LeftToes  -1.93726e-010 2.42366e-011 2.16268e-013
